<svg xmlns="http://www.w3.org/2000/svg" viewBox="0 0 747 201"><defs><style>.cls-1{fill:#e29145;}.cls-2{fill:#f1c562;}.cls-3{fill:#efb31e;}.cls-4{font-size:28.35px;fill:#3e4c68;font-family:Quicksand-Bold, Quicksand;font-weight:700;}.cls-5{letter-spacing:-0.02em;}.cls-6{letter-spacing:-0.02em;}.cls-7{letter-spacing:-0.01em;}.cls-10,.cls-8{fill:none;}.cls-9{fill:#231f20;}.cls-10{stroke:#231f20;stroke-miterlimit:10;stroke-width:1.42px;}</style></defs><title>Preços</title><g id="Textos"><polygon class="cls-1" points="396.77 106.34 581.03 105.64 581.03 20.57 396.77 50.31 396.77 106.34"/><polygon class="cls-2" points="212.5 78.32 212.5 105.64 28.23 105.64 212.5 78.32"/><polygon class="cls-3" points="396.77 50.31 396.77 106.34 212.5 105.64 212.5 78.32 396.77 50.31"/><text class="cls-4" transform="translate(98.56 138.21)">$</text><text class="cls-4" transform="translate(310.09 138.21)">$</text><text class="cls-4" transform="translate(287.65 138.21)">$</text><text class="cls-4" transform="translate(457.89 138.21)">$</text><text class="cls-4" transform="translate(478.63 138.21)">$</text><text class="cls-4" transform="translate(499.36 138.21)">$</text><text class="cls-4" transform="translate(28.23 179.78)">R$ <tspan class="cls-5" x="44.13" y="0">70.</tspan><tspan x="85.72" y="0">000</tspan></text><text class="cls-4" transform="translate(581.03 179.78)">R$ 12<tspan class="cls-6" x="70.35" y="0">0.</tspan><tspan x="95.87" y="0">000</tspan></text><text class="cls-4" transform="translate(396.77 179.78)">R$ 1<tspan class="cls-7" x="53.63" y="0">0</tspan><tspan x="73.47" y="0">3.300</tspan></text><text class="cls-4" transform="translate(212.5 179.78)">R$ 86.600</text><rect class="cls-8" x="205" y="105.08" width="15" height="14.78"/><rect class="cls-9" x="211.53" y="116.02" width="1.5" height="2.74"/><rect class="cls-9" x="211.53" y="111.1" width="1.5" height="2.74"/><rect class="cls-9" x="211.53" y="106.19" width="1.5" height="2.74"/><rect class="cls-8" x="205" y="119.85" width="15" height="14.78"/><rect class="cls-9" x="211.53" y="130.79" width="1.5" height="2.74"/><rect class="cls-9" x="211.53" y="125.88" width="1.5" height="2.74"/><rect class="cls-9" x="211.53" y="120.97" width="1.5" height="2.74"/><rect class="cls-8" x="205" y="134.63" width="15" height="14.78"/><rect class="cls-9" x="211.53" y="145.57" width="1.5" height="2.74"/><rect class="cls-9" x="211.53" y="140.65" width="1.5" height="2.74"/><rect class="cls-9" x="211.53" y="135.75" width="1.5" height="2.74"/><rect class="cls-8" x="20.73" y="105.08" width="15" height="14.78"/><rect class="cls-9" x="27.26" y="116.02" width="1.5" height="2.74"/><rect class="cls-9" x="27.26" y="111.1" width="1.5" height="2.74"/><rect class="cls-9" x="27.26" y="106.19" width="1.5" height="2.74"/><rect class="cls-8" x="20.73" y="119.85" width="15" height="14.78"/><rect class="cls-9" x="27.26" y="130.79" width="1.5" height="2.74"/><rect class="cls-9" x="27.26" y="125.88" width="1.5" height="2.74"/><rect class="cls-9" x="27.26" y="120.97" width="1.5" height="2.74"/><rect class="cls-8" x="20.73" y="134.63" width="15" height="14.78"/><rect class="cls-9" x="27.26" y="145.57" width="1.5" height="2.74"/><rect class="cls-9" x="27.26" y="140.65" width="1.5" height="2.74"/><rect class="cls-9" x="27.26" y="135.75" width="1.5" height="2.74"/><polyline class="cls-10" points="581.03 149.41 581.03 105.08 581.03 22.29 28.23 106.34 581.48 104.24"/><rect class="cls-8" x="389.27" y="105.08" width="15" height="14.78"/><rect class="cls-9" x="395.8" y="116.02" width="1.5" height="2.74"/><rect class="cls-9" x="395.8" y="111.1" width="1.5" height="2.74"/><rect class="cls-9" x="395.8" y="106.19" width="1.5" height="2.74"/><rect class="cls-8" x="389.27" y="119.85" width="15" height="14.78"/><rect class="cls-9" x="395.8" y="130.79" width="1.5" height="2.74"/><rect class="cls-9" x="395.8" y="125.88" width="1.5" height="2.74"/><rect class="cls-9" x="395.8" y="120.97" width="1.5" height="2.74"/><rect class="cls-8" x="389.27" y="134.63" width="15" height="14.78"/><rect class="cls-9" x="395.8" y="145.57" width="1.5" height="2.74"/><rect class="cls-9" x="395.8" y="140.65" width="1.5" height="2.74"/><rect class="cls-9" x="395.8" y="135.75" width="1.5" height="2.74"/></g></svg>