<svg xmlns="http://www.w3.org/2000/svg" viewBox="0 0 132 162"><defs><style>.cls-1{isolation:isolate;}.cls-2,.cls-6{fill:none;}.cls-2,.cls-3,.cls-4,.cls-5,.cls-6{stroke:#070707;stroke-miterlimit:10;}.cls-2,.cls-3,.cls-4{stroke-width:1.7px;}.cls-3{fill:#9ed4ea;}.cls-4{fill:#eaeaea;mix-blend-mode:multiply;}.cls-5{fill:#eacc1c;}.cls-6{stroke-width:0.57px;}</style></defs><title>02fotovoltaicafixa</title><g class="cls-1"><g id="Textos"><polygon class="cls-2" points="108.63 104.58 41.76 104.58 44.77 49.27 105.61 49.27 108.63 104.58"/><line class="cls-2" x1="75.19" y1="49.27" x2="75.19" y2="131.35"/><line class="cls-3" x1="57.53" y1="104.58" x2="60.76" y2="49.27"/><line class="cls-3" x1="91.56" y1="104.58" x2="88.32" y2="49.27"/><line class="cls-3" x1="43.98" y1="63.8" x2="106.4" y2="63.8"/><line class="cls-3" x1="43.98" y1="76.93" x2="106.4" y2="76.93"/><line class="cls-3" x1="42.04" y1="90.31" x2="108.16" y2="90.31"/><rect class="cls-4" x="72.6" y="107.2" width="5.18" height="4.43"/><polygon class="cls-5" points="37.71 12.42 18.2 45.12 39.48 38.64 25.58 63.8 56.32 30.09 32.46 31.96 37.71 12.42"/><path class="cls-6" d="M96.68,140.77l.54,3.1c11.42-11.39,2.46-20.48-2.57-23.66"/><line class="cls-6" x1="100.03" y1="144.12" x2="96.69" y2="144.4"/><path class="cls-6" d="M89.11,138.45l.45,2.57c9.5-9.48,2-17-2.14-19.68"/><line class="cls-6" x1="91.89" y1="141.24" x2="89.11" y2="141.47"/><circle class="cls-2" cx="75.19" cy="135.4" r="4.89"/></g></g></svg>