<?xml version="1.0" encoding="utf-8"?>
<!-- Generator: Adobe Illustrator 21.0.0, SVG Export Plug-In . SVG Version: 6.00 Build 0)  -->
<svg version="1.1" id="Camada_1" xmlns="http://www.w3.org/2000/svg" xmlns:xlink="http://www.w3.org/1999/xlink" x="0px" y="0px"
	 viewBox="0 0 689 183.5" style="enable-background:new 0 0 689 183.5;" xml:space="preserve">
<style type="text/css">
	.st0{fill:#FFFFFF;}
	.st1{fill:#FFFFFF;stroke:#FFFFFF;stroke-width:2;stroke-miterlimit:10;}
	.st2{fill:none;stroke:#FFFFFF;stroke-miterlimit:10;}
	.st3{fill:none;stroke:#FFFFFF;stroke-width:2;stroke-miterlimit:10;}
	.st4{fill:#9DD3E9;stroke:#FFFFFF;stroke-width:2;stroke-miterlimit:10;}
	.st5{fill:#E9E9EA;stroke:#FFFFFF;stroke-width:2;stroke-miterlimit:10;}
	.st6{fill:#CDCBCA;}
	.st7{fill:#F7F7F7;}
	.st8{fill:#3B96D2;stroke:#030607;stroke-width:0.1;stroke-miterlimit:10;}
	.st9{fill:none;stroke:#000000;stroke-miterlimit:10;}
	.st10{fill:#3B96D2;}
	.st11{fill:none;stroke:#0D0D0D;stroke-miterlimit:10;}
	.st12{fill:none;stroke:#0C0D0D;stroke-miterlimit:10;}
	.st13{fill:#57C0B4;}
	.st14{fill:#48859B;}
	.st15{fill:#0F657C;}
	.st16{fill:none;stroke:#3D4D69;stroke-miterlimit:10;}
	.st17{fill:#3D4D69;}
	.st18{font-family:'Quicksand-Bold';}
	.st19{font-size:28.3465px;}
	.st20{fill:none;stroke:#FFFFFF;stroke-width:1.4173;stroke-miterlimit:10;}
</style>
<g>
	<polygon class="st13" points="232.3,57.8 232.3,85.1 48,85.1 	"/>
	<polygon class="st14" points="416.5,29.7 416.5,85.8 232.3,85.1 232.3,57.8 	"/>
	<polygon class="st15" points="416.5,85.8 600.8,85.1 600.8,0 416.5,29.7 	"/>
	<polyline class="st16" points="601.2,83.7 48,85.8 600.8,1.7 	"/>
	<g>
		<text transform="matrix(1 0 0 1 118.326 127.6415)" class="st17 st18 st19">$</text>
	</g>
	<g>
		<text transform="matrix(1 0 0 1 329.8549 127.6415)" class="st17 st18 st19">$</text>
	</g>
	<g>
		<text transform="matrix(1 0 0 1 307.4144 127.6415)" class="st17 st18 st19">$</text>
	</g>
	<g>
		<text transform="matrix(1 0 0 1 477.6571 127.6415)" class="st17 st18 st19">$</text>
	</g>
	<g>
		<text transform="matrix(1 0 0 1 498.3905 127.6415)" class="st17 st18 st19">$</text>
	</g>
	<g>
		<text transform="matrix(1 0 0 1 519.1239 127.6415)" class="st17 st18 st19">$</text>
	</g>
	<g>
		<text transform="matrix(1 0 0 1 -1.220703e-04 178.2118)" class="st17 st18 st19">R$ 14.500</text>
	</g>
	<g>
		<text transform="matrix(1 0 0 1 184.2655 178.2118)" class="st17 st18 st19">R$ 16.250</text>
	</g>
	<g>
		<text transform="matrix(1 0 0 1 369.1591 178.2118)" class="st17 st18 st19">R$ 18.050</text>
	</g>
	<g>
		<text transform="matrix(1 0 0 1 552.7968 178.2118)" class="st17 st18 st19">R$ 19.800</text>
	</g>
	<line class="st20" x1="600.8" y1="1.7" x2="601.2" y2="83.7"/>
</g>
</svg>
