<?xml version="1.0" encoding="utf-8"?>
<!-- Generator: Adobe Illustrator 16.0.0, SVG Export Plug-In . SVG Version: 6.00 Build 0)  -->
<!DOCTYPE svg PUBLIC "-//W3C//DTD SVG 1.1//EN" "http://www.w3.org/Graphics/SVG/1.1/DTD/svg11.dtd">
<svg version="1.1" xmlns="http://www.w3.org/2000/svg" xmlns:xlink="http://www.w3.org/1999/xlink" x="0px" y="0px"
	 width="184.068px" height="87.299px" viewBox="0 0 184.068 87.299" enable-background="new 0 0 184.068 87.299"
	 xml:space="preserve">
<g id="Fundo">
</g>
<g id="Imagens">
</g>
<g id="OBSERVAÇOES">
</g>
<g id="Textos">
	<g>
		<g>
			<path fill="#676767" d="M9.563,42.99h6.61v10.508c-1.029,0.364-2.074,0.641-3.139,0.827c-1.064,0.188-2.297,0.281-3.697,0.281
				c-2.945,0-5.236-0.974-6.877-2.919C0.82,49.741,0,47.015,0,43.507c0-2.246,0.406-4.214,1.217-5.903
				c0.812-1.69,1.98-2.98,3.505-3.872c1.525-0.892,3.312-1.338,5.36-1.338c2.075,0,4.008,0.424,5.799,1.271l-0.877,2.217
				c-1.756-0.828-3.445-1.242-5.068-1.242c-2.367,0-4.217,0.783-5.547,2.351c-1.33,1.566-1.994,3.738-1.994,6.517
				c0,2.917,0.641,5.129,1.922,6.636c1.281,1.508,3.163,2.262,5.646,2.262c1.348,0,2.664-0.173,3.949-0.518v-6.65H9.563V42.99z"/>
			<path fill="#676767" d="M22.585,38.113v10.508c0,1.32,0.271,2.305,0.812,2.955s1.387,0.976,2.54,0.976
				c1.525,0,2.641-0.463,3.345-1.389c0.705-0.927,1.059-2.438,1.059-4.537v-8.513h2.207v16.197h-1.822l-0.318-2.173h-0.12
				c-0.452,0.799-1.079,1.409-1.882,1.833s-1.719,0.636-2.747,0.636c-1.773,0-3.101-0.468-3.983-1.404
				c-0.883-0.936-1.324-2.434-1.324-4.493V38.113H22.585z"/>
			<path fill="#676767" d="M37.043,33.724c0-0.562,0.124-0.973,0.373-1.234c0.248-0.261,0.559-0.392,0.93-0.392
				c0.355,0,0.661,0.134,0.918,0.399c0.258,0.266,0.387,0.675,0.387,1.227s-0.129,0.963-0.387,1.234
				c-0.257,0.271-0.563,0.406-0.918,0.406c-0.371,0-0.682-0.136-0.93-0.406C37.167,34.687,37.043,34.275,37.043,33.724z
				 M39.438,54.311h-2.209V38.113h2.209V54.311z"/>
			<path fill="#676767" d="M53.084,54.311l-0.439-2.306h-0.105c-0.728,1.015-1.452,1.702-2.175,2.062
				c-0.724,0.359-1.625,0.54-2.707,0.54c-1.445,0-2.578-0.414-3.398-1.242c-0.82-0.827-1.229-2.004-1.229-3.531
				c0-3.271,2.354-4.985,7.063-5.144l2.474-0.089v-1.005c0-1.271-0.246-2.209-0.738-2.815c-0.492-0.605-1.279-0.908-2.36-0.908
				c-1.215,0-2.59,0.413-4.124,1.241l-0.679-1.877c0.719-0.434,1.506-0.773,2.361-1.02s1.714-0.37,2.574-0.37
				c1.737,0,3.025,0.429,3.863,1.286s1.258,2.231,1.258,4.123v11.055H53.084z M48.096,52.581c1.375,0,2.455-0.418,3.239-1.256
				c0.784-0.837,1.177-2.01,1.177-3.518v-1.463l-2.207,0.104c-1.756,0.069-3.021,0.372-3.798,0.909s-1.164,1.372-1.164,2.505
				c0,0.887,0.241,1.562,0.726,2.024C46.551,52.35,47.227,52.581,48.096,52.581z"/>
		</g>
		<polygon fill="#DCDBDB" points="135.78,45.792 135.696,45.792 111.993,45.792 100.099,66.392 111.993,86.993 112.772,86.993 
			135.78,86.993 147.673,66.392 		"/>
		<polygon fill="#57C1B4" points="97.722,22.898 97.64,22.898 73.933,22.898 62.038,43.494 73.933,64.097 74.716,64.097 
			97.722,64.097 109.614,43.494 		"/>
		<polygon fill="#DCDBDB" points="135.78,0 135.696,0 111.993,0 100.099,20.597 111.993,41.205 112.772,41.205 135.78,41.205 
			147.673,20.597 		"/>
		<g>
			<path fill="#FFFFFF" d="M87.131,32.661v9.574h9.207v2.444h-9.207v9.655h-2.607v-9.655h-9.209v-2.444h9.209v-9.574H87.131z"/>
		</g>
		<g>
			<path fill="#11A3A7" d="M49.111,81.066c0,1.961-0.64,3.489-1.92,4.587c-1.279,1.097-3.018,1.646-5.211,1.646
				c-2.378,0-4.207-0.34-5.486-1.021v-2.5c0.822,0.387,1.719,0.691,2.688,0.915s1.93,0.335,2.881,0.335
				c1.555,0,2.725-0.328,3.511-0.983s1.18-1.566,1.18-2.735c0-0.771-0.14-1.404-0.419-1.896c-0.278-0.493-0.744-0.947-1.398-1.364
				c-0.654-0.416-1.648-0.889-2.982-1.417c-1.865-0.742-3.199-1.621-3.998-2.637c-0.801-1.016-1.201-2.342-1.201-3.978
				c0-1.717,0.581-3.083,1.742-4.099c1.161-1.017,2.697-1.524,4.608-1.524c1.993,0,3.827,0.406,5.5,1.219l-0.728,2.256
				c-1.654-0.772-3.264-1.158-4.827-1.158c-1.234,0-2.199,0.295-2.894,0.884c-0.695,0.59-1.043,1.407-1.043,2.453
				c0,0.772,0.128,1.405,0.385,1.897c0.256,0.493,0.688,0.945,1.295,1.356c0.608,0.411,1.539,0.866,2.791,1.364
				c2.104,0.833,3.551,1.727,4.342,2.682S49.111,79.542,49.111,81.066z"/>
			<path fill="#11A3A7" d="M55.01,70.292v10.835c0,1.361,0.278,2.377,0.836,3.048c0.559,0.671,1.432,1.006,2.62,1.006
				c1.572,0,2.722-0.478,3.449-1.433s1.091-2.515,1.091-4.679v-8.777h2.276v16.702h-1.879l-0.329-2.24h-0.123
				c-0.467,0.823-1.113,1.453-1.941,1.89s-1.771,0.655-2.832,0.655c-1.829,0-3.198-0.482-4.107-1.447
				c-0.91-0.966-1.365-2.51-1.365-4.633V70.292H55.01z"/>
			<path fill="#11A3A7" d="M79.807,82.438c0,1.555-0.521,2.754-1.564,3.597c-1.042,0.844-2.505,1.265-4.389,1.265
				c-1.993,0-3.547-0.351-4.662-1.052V83.9c0.722,0.406,1.496,0.727,2.324,0.96c0.827,0.234,1.625,0.351,2.393,0.351
				c1.189,0,2.104-0.211,2.744-0.632c0.639-0.422,0.959-1.064,0.959-1.928c0-0.65-0.254-1.207-0.761-1.669s-1.497-1.008-2.97-1.639
				c-1.398-0.579-2.393-1.084-2.982-1.516s-1.029-0.922-1.316-1.471c-0.289-0.549-0.433-1.204-0.433-1.966
				c0-1.361,0.499-2.436,1.495-3.224c0.996-0.787,2.363-1.181,4.102-1.181c1.617,0,3.199,0.366,4.744,1.098l-0.809,2.057
				c-1.509-0.69-2.875-1.036-4.101-1.036c-1.079,0-1.894,0.188-2.441,0.563c-0.549,0.376-0.823,0.895-0.823,1.555
				c0,0.447,0.104,0.828,0.309,1.144c0.206,0.314,0.537,0.614,0.994,0.898c0.457,0.285,1.336,0.696,2.634,1.234
				c1.782,0.722,2.987,1.448,3.614,2.18C79.493,80.411,79.807,81.33,79.807,82.438z"/>
			<path fill="#11A3A7" d="M88.365,85.211c0.402,0,0.791-0.032,1.166-0.099c0.374-0.066,0.672-0.135,0.891-0.206v1.936
				c-0.246,0.132-0.61,0.241-1.09,0.327c-0.48,0.087-0.912,0.13-1.297,0.13c-2.907,0-4.361-1.701-4.361-5.105v-9.936h-2.152v-1.219
				l2.152-1.052l0.961-3.566h1.316v3.871h4.361v1.966h-4.361v9.829c0,1.006,0.215,1.778,0.645,2.316
				C87.025,84.942,87.615,85.211,88.365,85.211z"/>
			<path fill="#11A3A7" d="M99.775,87.299c-2.222,0-3.975-0.752-5.26-2.255c-1.284-1.504-1.927-3.592-1.927-6.264
				c0-2.692,0.597-4.831,1.79-6.416s2.795-2.377,4.807-2.377c1.884,0,3.375,0.688,4.472,2.064c1.097,1.377,1.646,3.193,1.646,5.448
				v1.601H94.947c0.047,1.961,0.492,3.449,1.338,4.465s2.037,1.523,3.572,1.523c1.619,0,3.219-0.375,4.801-1.127v2.255
				c-0.805,0.387-1.566,0.663-2.283,0.831C101.656,87.215,100.791,87.299,99.775,87.299z M99.158,72.105
				c-1.207,0-2.169,0.438-2.887,1.311c-0.718,0.874-1.141,2.083-1.269,3.627h7.858c0-1.595-0.32-2.816-0.96-3.665
				C101.262,72.53,100.348,72.105,99.158,72.105z"/>
			<path fill="#11A3A7" d="M119.471,86.994V76.189c0-1.361-0.279-2.377-0.836-3.048c-0.559-0.67-1.432-1.006-2.62-1.006
				c-1.573,0-2.726,0.473-3.456,1.418c-0.732,0.944-1.098,2.504-1.098,4.678v8.763h-2.276V70.292h1.852l0.37,2.286h0.109
				c0.467-0.823,1.12-1.461,1.961-1.913c0.842-0.451,1.779-0.678,2.813-0.678c1.811,0,3.172,0.485,4.087,1.455
				c0.914,0.971,1.372,2.522,1.372,4.656v10.896H119.471z"/>
			<path fill="#11A3A7" d="M131.279,85.211c0.402,0,0.791-0.032,1.166-0.099s0.672-0.135,0.891-0.206v1.936
				c-0.246,0.132-0.609,0.241-1.09,0.327c-0.48,0.087-0.912,0.13-1.296,0.13c-2.907,0-4.361-1.701-4.361-5.105v-9.936h-2.153v-1.219
				l2.153-1.052l0.96-3.566h1.316v3.871h4.361v1.966h-4.361v9.829c0,1.006,0.215,1.778,0.645,2.316
				C129.939,84.942,130.529,85.211,131.279,85.211z"/>
			<path fill="#11A3A7" d="M145.584,86.994l-0.452-2.377h-0.109c-0.75,1.046-1.497,1.755-2.243,2.126
				c-0.744,0.37-1.675,0.556-2.791,0.556c-1.49,0-2.658-0.427-3.504-1.28s-1.269-2.067-1.269-3.642c0-3.373,2.428-5.141,7.282-5.304
				l2.552-0.091v-1.036c0-1.312-0.254-2.278-0.761-2.903c-0.508-0.625-1.319-0.938-2.436-0.938c-1.252,0-2.67,0.427-4.251,1.28
				l-0.7-1.936c0.741-0.447,1.553-0.797,2.436-1.052c0.882-0.254,1.767-0.381,2.653-0.381c1.792,0,3.12,0.442,3.984,1.326
				s1.296,2.301,1.296,4.252v11.398H145.584z M140.441,85.211c1.417,0,2.531-0.432,3.34-1.295s1.214-2.072,1.214-3.627V78.78
				l-2.276,0.106c-1.811,0.071-3.116,0.384-3.916,0.938c-0.801,0.554-1.2,1.415-1.2,2.583c0,0.914,0.249,1.61,0.747,2.088
				S139.545,85.211,140.441,85.211z M139.906,67.701c0.439-0.63,0.912-1.392,1.42-2.285c0.508-0.895,0.907-1.672,1.2-2.332h2.771
				v0.32c-0.402,0.66-1.002,1.473-1.797,2.438c-0.795,0.965-1.486,1.712-2.07,2.239h-1.523V67.701z"/>
			<path fill="#11A3A7" d="M155.254,86.994l-5.705-16.702h2.441l3.236,9.905c0.731,2.316,1.161,3.82,1.289,4.511h0.109
				c0.102-0.538,0.418-1.653,0.953-3.345s1.735-5.382,3.601-11.071h2.441l-5.706,16.702H155.254z"/>
			<path fill="#11A3A7" d="M172.385,87.299c-2.223,0-3.977-0.752-5.26-2.255c-1.285-1.504-1.928-3.592-1.928-6.264
				c0-2.692,0.597-4.831,1.79-6.416c1.192-1.585,2.796-2.377,4.808-2.377c1.883,0,3.373,0.688,4.471,2.064
				c1.098,1.377,1.646,3.193,1.646,5.448v1.601h-10.354c0.045,1.961,0.491,3.449,1.337,4.465s2.036,1.523,3.573,1.523
				c1.618,0,3.218-0.375,4.8-1.127v2.255c-0.805,0.387-1.565,0.663-2.284,0.831C174.266,87.215,173.398,87.299,172.385,87.299z
				 M171.768,72.105c-1.207,0-2.17,0.438-2.888,1.311c-0.718,0.874-1.141,2.083-1.269,3.627h7.859c0-1.595-0.32-2.816-0.961-3.665
				C173.869,72.53,172.955,72.105,171.768,72.105z"/>
			<path fill="#11A3A7" d="M184.068,86.994h-2.275V63.282h2.275V86.994z"/>
		</g>
	</g>
</g>
</svg>
